<svg xmlns="http://www.w3.org/2000/svg"  viewBox="0 0 64 64" width="128px" height="128px"><linearGradient id="Y32HJzCDaT~1CgHjciG_sa" x1="46.5" x2="46.5" y1="32.596" y2="42.873" gradientUnits="userSpaceOnUse"><stop offset="0" stop-color="#6dc7ff"/><stop offset="1" stop-color="#e6abff"/></linearGradient><polygon fill="url(#Y32HJzCDaT~1CgHjciG_sa)" points="51,43.146 51,32 42,47.646"/><linearGradient id="Y32HJzCDaT~1CgHjciG_sb" x1="32" x2="32" y1="8.149" y2="55.199" gradientUnits="userSpaceOnUse"><stop offset="0" stop-color="#1a6dff"/><stop offset="1" stop-color="#c822ff"/></linearGradient><path fill="url(#Y32HJzCDaT~1CgHjciG_sb)" d="M54.989,45.649C54.996,45.603,55,45.556,55,45.51V18.449c0-0.358-0.221-0.722-0.539-0.887	c0,0-22-11.449-22-11.449c-0.289-0.15-0.634-0.15-0.923,0l-22,11.449C9.223,17.726,9,18.093,9,18.449v26.992	c0,0.017,0.009,0.03,0.009,0.047c-0.007,0.368,0.18,0.728,0.529,0.909c0,0,22,11.449,22,11.449c0.277,0.144,0.647,0.143,0.923,0	c0,0,21.987-11.442,22-11.449C54.731,46.257,54.939,45.956,54.989,45.649z M11,20.097l12,6.245V31h2v-3.617l2,1.041V33h2v-3.536	l2,1.041v24.806L11,44.903V20.097z M33,30.505l20-10.408v24.806L33,55.311V30.505z M32,8.127l19.834,10.322L32,28.771L12.166,18.449	L32,8.127z"/></svg>