<svg xmlns="http://www.w3.org/2000/svg"  viewBox="0 0 64 64" width="128px" height="128px"><linearGradient id="G~t1NCu3HxcMr0Tyo8AZ7a" x1="32" x2="32" y1="13.667" y2="42.361" gradientUnits="userSpaceOnUse" spreadMethod="reflect"><stop offset="0" stop-color="#1a6dff"/><stop offset="1" stop-color="#c822ff"/></linearGradient><path fill="url(#G~t1NCu3HxcMr0Tyo8AZ7a)" d="M58,42v-2.882L34.12,14.894C33.56,14.315,32.8,14,32,14s-1.56,0.315-2.12,0.893L6,39.118V42 l25.29-25.676c0.38-0.386,1.04-0.386,1.42,0L58,42z"/><linearGradient id="G~t1NCu3HxcMr0Tyo8AZ7b" x1="32" x2="32" y1="21.25" y2="51.923" gradientUnits="userSpaceOnUse" spreadMethod="reflect"><stop offset="0" stop-color="#6dc7ff"/><stop offset="1" stop-color="#e6abff"/></linearGradient><path fill="url(#G~t1NCu3HxcMr0Tyo8AZ7b)" d="M58,50v-2.882L34.12,22.894C33.56,22.315,32.8,22,32,22s-1.56,0.315-2.12,0.893L6,47.118V50 l25.29-25.676c0.38-0.386,1.04-0.386,1.42,0L58,50z"/></svg>