<svg xmlns="http://www.w3.org/2000/svg"  viewBox="0 0 64 64" width="128px" height="128px"><linearGradient id="7b6XR_D~PByUz_ilD6w~oa" x1="32" x2="32" y1="11.723" y2="52.093" gradientUnits="userSpaceOnUse"><stop offset="0" stop-color="#1a6dff"/><stop offset="1" stop-color="#c822ff"/></linearGradient><path fill="url(#7b6XR_D~PByUz_ilD6w~oa)" d="M62,29v-2H42.525l-8.677-14.823c-0.389-0.664-1.079-1.06-1.848-1.06s-1.459,0.396-1.848,1.059	L19.134,31H2v2h15.963L8.142,49.777c-0.392,0.67-0.396,1.473-0.01,2.146C8.519,52.598,9.213,53,9.99,53h44.02	c0.777,0,1.472-0.402,1.858-1.076c0.386-0.674,0.382-1.476-0.01-2.146L48.379,37H56v-2h-8.792l-1.171-2H59v-2H44.866l-1.171-2H62z M54.132,50.788c0.011,0.017,0.041,0.07,0.001,0.141C54.092,51,54.03,51,54.01,51H9.99c-0.021,0-0.082,0-0.123-0.071	c-0.04-0.07-0.01-0.124,0.001-0.141l22.011-37.601c0,0,0,0,0,0c0.01-0.017,0.041-0.069,0.121-0.069s0.111,0.052,0.121,0.07	L46,36.897V37h0.061L54.132,50.788z"/><linearGradient id="7b6XR_D~PByUz_ilD6w~ob" x1="41.013" x2="41.013" y1="17.596" y2="48.203" gradientUnits="userSpaceOnUse"><stop offset="0" stop-color="#6dc7ff"/><stop offset="1" stop-color="#e6abff"/></linearGradient><path fill="url(#7b6XR_D~PByUz_ilD6w~ob)" d="M32,18.521V48c0,0.552,0.448,1,1,1h16.023c0.772,0,1.253-0.839,0.863-1.505L32.799,18.304 C32.578,17.927,32,18.083,32,18.521z"/></svg>