<svg xmlns="http://www.w3.org/2000/svg"  viewBox="0 0 64 64" width="128px" height="128px"><linearGradient id="HtZ_aG2VWDiJ8NnodpcTna" x1="31" x2="31" y1="43.766" y2="45.896" gradientUnits="userSpaceOnUse"><stop offset="0" stop-color="#6dc7ff"/><stop offset="1" stop-color="#e6abff"/></linearGradient><rect width="4" height="4" x="29" y="43" fill="url(#HtZ_aG2VWDiJ8NnodpcTna)"/><linearGradient id="HtZ_aG2VWDiJ8NnodpcTnb" x1="19" x2="19" y1="31.128" y2="34.006" gradientUnits="userSpaceOnUse"><stop offset="0" stop-color="#6dc7ff"/><stop offset="1" stop-color="#e6abff"/></linearGradient><rect width="4" height="4" x="17" y="31" fill="url(#HtZ_aG2VWDiJ8NnodpcTnb)"/><linearGradient id="HtZ_aG2VWDiJ8NnodpcTnc" x1="33" x2="33" y1="17.755" y2="19.72" gradientUnits="userSpaceOnUse"><stop offset="0" stop-color="#6dc7ff"/><stop offset="1" stop-color="#e6abff"/></linearGradient><polygon fill="url(#HtZ_aG2VWDiJ8NnodpcTnc)" points="31,17 35,17 35,21 31,21"/><linearGradient id="HtZ_aG2VWDiJ8NnodpcTnd" x1="45" x2="45" y1="29.851" y2="32.241" gradientUnits="userSpaceOnUse"><stop offset="0" stop-color="#6dc7ff"/><stop offset="1" stop-color="#e6abff"/></linearGradient><polygon fill="url(#HtZ_aG2VWDiJ8NnodpcTnd)" points="43,29 47,29 47,33 43,33"/><linearGradient id="HtZ_aG2VWDiJ8NnodpcTne" x1="32" x2="32" y1="5.894" y2="48.739" gradientUnits="userSpaceOnUse"><stop offset="0" stop-color="#1a6dff"/><stop offset="1" stop-color="#c822ff"/></linearGradient><path fill="url(#HtZ_aG2VWDiJ8NnodpcTne)" d="M48,32.363V29c0-0.553-0.448-1-1-1h-1v-8c0-1.103-0.897-2-2-2h-8v-1c0-0.553-0.448-1-1-1	h-3.363C30.277,10.276,25.134,6,19,6C11.832,6,6,11.832,6,19c0,6.134,4.276,11.277,10,12.637V35c0,0.553,0.448,1,1,1h1v8	c0,1.103,0.897,2,2,2h8v1c0,0.553,0.448,1,1,1h3.363c1.36,5.724,6.502,10,12.637,10c7.168,0,13-5.832,13-13	C58,38.866,53.724,33.723,48,32.363z M44,32v-2h2v2H44z M32,18h2v2h-2V18z M8,19c0-6.065,4.935-11,11-11s11,4.935,11,11	c0,2.984-1.198,5.69-3.134,7.674c-0.406-2.136-1.782-3.931-3.71-4.901C23.688,20.978,24,20.025,24,19v-2c0-2.757-2.243-5-5-5	s-5,2.243-5,5v2c0,1.028,0.313,1.984,0.848,2.78c-1.907,0.976-3.296,2.781-3.71,4.898C9.2,24.694,8,21.986,8,19z M19,30	c-2.214,0-4.273-0.663-6-1.792V28c0-1.032,0.337-2,0.894-2.813C14.949,26.894,16.823,28,18.905,28h0.202	c2.079,0,3.957-1.11,5.012-2.819C24.67,25.99,25,26.956,25,28v0.208C23.273,29.337,21.214,30,19,30z M19,24	c0.942,0,1.814-0.277,2.567-0.732c0.38,0.125,0.743,0.28,1.073,0.484C22.007,25.101,20.633,26,19.106,26h-0.202	c-1.532,0-2.902-0.899-3.533-2.25c0.328-0.204,0.688-0.357,1.062-0.481C17.187,23.723,18.058,24,19,24z M22,19c0,1.654-1.346,3-3,3	s-3-1.346-3-3v-2c0-1.654,1.346-3,3-3s3,1.346,3,3V19z M20,32v2h-2v-2H20z M28,43v1h-8v-8h1c0.552,0,1-0.447,1-1v-3.363	c4.759-1.13,8.506-4.877,9.637-9.637H35c0.552,0,1-0.447,1-1v-1h8v8h-1c-0.552,0-1,0.447-1,1v3.363	c-4.759,1.13-8.506,4.877-9.637,9.637H29C28.448,42,28,42.447,28,43z M32,46h-2v-2h2V46z M39,54.208V54	c0-1.027,0.331-1.999,0.888-2.813C40.943,52.894,42.817,54,44.899,54h0.202c2.077,0,3.955-1.11,5.01-2.817	C50.668,51.996,51,52.967,51,54v0.208C49.273,55.337,47.214,56,45,56S40.727,55.337,39,54.208z M45,50	c0.943,0,1.817-0.278,2.571-0.734c0.377,0.125,0.73,0.292,1.059,0.496C47.995,51.106,46.624,52,45.101,52h-0.202	c-1.526,0-2.891-0.893-3.525-2.236c0.327-0.204,0.677-0.375,1.052-0.5C43.18,49.721,44.055,50,45,50z M48,45c0,1.654-1.346,3-3,3	s-3-1.346-3-3v-2c0-1.654,1.346-3,3-3s3,1.346,3,3V45z M52.861,52.679c-0.411-2.117-1.784-3.934-3.703-4.911	C49.689,46.975,50,46.024,50,45v-2c0-2.757-2.243-5-5-5s-5,2.243-5,5v2c0,1.022,0.311,1.971,0.839,2.764	c-1.916,0.979-3.286,2.807-3.698,4.917C35.201,50.697,34,47.987,34,45c0-6.065,4.935-11,11-11s11,4.935,11,11	C56,47.986,54.8,50.695,52.861,52.679z"/></svg>