<svg xmlns="http://www.w3.org/2000/svg"  viewBox="0 0 64 64" width="128px" height="128px"><linearGradient id="SVGID_1_" x1="14.458" x2="14.458" y1="9.17" y2="53.599" gradientUnits="userSpaceOnUse"><stop offset="0" stop-color="#1a6dff"/><stop offset="1" stop-color="#c822ff"/></linearGradient><path fill="url(#SVGID_1_)" d="M8,32c0-9.7,5.8-18.4,14.7-22.1L21.9,8C12.3,12.1,6,21.5,6,32c0,10.6,6.3,20.1,16.2,24.1l0.8-1.9 C13.9,50.5,8,41.8,8,32z"/><linearGradient id="SVGID_2_" x1="19.959" x2="19.959" y1="9.17" y2="53.599" gradientUnits="userSpaceOnUse"><stop offset="0" stop-color="#1a6dff"/><stop offset="1" stop-color="#c822ff"/></linearGradient><path fill="url(#SVGID_2_)" d="M16,32c0-6.5,3.8-12.3,9.8-14.8L25,15.4c-6.7,2.8-11,9.3-11,16.6c0,7.3,4.4,13.9,11.2,16.6l0.8-1.8 C19.9,44.3,16,38.5,16,32z"/><linearGradient id="SVGID_3_" x1="32" x2="32" y1="9.17" y2="53.599" gradientUnits="userSpaceOnUse"><stop offset="0" stop-color="#1a6dff"/><stop offset="1" stop-color="#c822ff"/></linearGradient><path fill="url(#SVGID_3_)" d="M32,24c-4.4,0-8,3.6-8,8s3.6,8,8,8s8-3.6,8-8S36.4,24,32,24z M32,38c-3.3,0-6-2.7-6-6s2.7-6,6-6s6,2.7,6,6 S35.3,38,32,38z"/><linearGradient id="SVGID_4_" x1="49.547" x2="49.547" y1="9.17" y2="53.599" gradientUnits="userSpaceOnUse"><stop offset="0" stop-color="#1a6dff"/><stop offset="1" stop-color="#c822ff"/></linearGradient><path fill="url(#SVGID_4_)" d="M42.1,8l-0.8,1.8C50.2,13.6,56,22.3,56,32c0,9.8-5.9,18.5-14.9,22.2l0.8,1.9C51.7,52.1,58,42.6,58,32 C58,21.5,51.8,12.1,42.1,8z"/><linearGradient id="SVGID_5_" x1="44.045" x2="44.045" y1="9.17" y2="53.599" gradientUnits="userSpaceOnUse"><stop offset="0" stop-color="#1a6dff"/><stop offset="1" stop-color="#c822ff"/></linearGradient><path fill="url(#SVGID_5_)" d="M50,32c0-7.3-4.3-13.8-11-16.6l-0.8,1.8c6,2.5,9.8,8.3,9.8,14.8c0,6.5-3.9,12.3-9.9,14.8l0.8,1.8 C45.6,45.9,50,39.3,50,32z"/><linearGradient id="SVGID_6_" x1="17.216" x2="17.216" y1="13" y2="47.596" gradientUnits="userSpaceOnUse"><stop offset="0" stop-color="#6dc7ff"/><stop offset="1" stop-color="#e6abff"/></linearGradient><path fill="url(#SVGID_6_)" d="M12,32c0-8.1,4.8-15.3,12.3-18.4l-0.8-1.8C15.3,15.1,10,23.1,10,32c0,9,5.4,17,13.7,20.4l0.8-1.9	C16.9,47.4,12,40.2,12,32z"/><linearGradient id="SVGID_7_" x1="22.695" x2="22.695" y1="13" y2="47.596" gradientUnits="userSpaceOnUse"><stop offset="0" stop-color="#6dc7ff"/><stop offset="1" stop-color="#e6abff"/></linearGradient><path fill="url(#SVGID_7_)" d="M20,32c0-4.7,2.8-9,7.1-11l-0.8-1.8c-5,2.2-8.3,7.3-8.3,12.8c0,5.7,3.4,10.7,8.6,12.9l0.8-1.8	C22.9,41.2,20,36.9,20,32z"/><linearGradient id="SVGID_8_" x1="46.789" x2="46.789" y1="13" y2="47.596" gradientUnits="userSpaceOnUse"><stop offset="0" stop-color="#6dc7ff"/><stop offset="1" stop-color="#e6abff"/></linearGradient><path fill="url(#SVGID_8_)" d="M40.5,11.7l-0.8,1.8C47.2,16.7,52,23.9,52,32c0,8.2-4.9,15.4-12.4,18.5l0.8,1.9C48.6,49,54,41,54,32	C54,23.1,48.7,15.1,40.5,11.7z"/><linearGradient id="SVGID_9_" x1="41.31" x2="41.31" y1="13" y2="47.596" gradientUnits="userSpaceOnUse"><stop offset="0" stop-color="#6dc7ff"/><stop offset="1" stop-color="#e6abff"/></linearGradient><path fill="url(#SVGID_9_)" d="M46,32c0-5.5-3.3-10.5-8.3-12.8L36.9,21C41.2,23,44,27.3,44,32c0,4.9-2.9,9.2-7.4,11.1l0.8,1.8	C42.6,42.7,46,37.7,46,32z"/><linearGradient id="SVGID_10_" x1="34" x2="34" y1="27.298" y2="34.926" gradientUnits="userSpaceOnUse"><stop offset="0" stop-color="#6dc7ff"/><stop offset="1" stop-color="#e6abff"/></linearGradient><path fill="url(#SVGID_10_)" d="M32,28v8c2.2,0,4-1.8,4-4C36,29.8,34.2,28,32,28z"/></svg>