<svg xmlns="http://www.w3.org/2000/svg"  viewBox="0 0 64 64" width="128px" height="128px"><linearGradient id="4CquzWHpYrD6x16pmy2oRa" x1="-273.999" x2="-331.756" y1="-525" y2="-525" gradientTransform="matrix(0 -1 -1 0 -489 -271)" gradientUnits="userSpaceOnUse" spreadMethod="reflect"><stop offset="0" stop-color="#1a6dff"/><stop offset="1" stop-color="#c822ff"/></linearGradient><path fill="url(#4CquzWHpYrD6x16pmy2oRa)" d="M54,32c0,0.984-0.444,1.908-1.219,2.535L23.492,58.242c-1.026,0.831-2.409,0.992-3.607,0.421 C18.723,58.108,18,56.977,18,55.708V8.292c0-1.269,0.723-2.4,1.885-2.955c1.198-0.571,2.581-0.41,3.607,0.421l29.289,23.707 C53.556,30.092,54,31.016,54,32z M51.523,32.98c0.613-0.498,0.613-1.463,0-1.961L22.234,7.312c-0.429-0.347-0.984-0.41-1.488-0.171 C20.279,7.365,20,7.795,20,8.292v47.416c0,0.497,0.279,0.927,0.746,1.15c0.504,0.239,1.06,0.176,1.488-0.171L51.523,32.98z"/><linearGradient id="4CquzWHpYrD6x16pmy2oRb" x1="-286.217" x2="-321.065" y1="-523.5" y2="-523.5" gradientTransform="matrix(0 -1 -1 0 -489 -271)" gradientUnits="userSpaceOnUse" spreadMethod="reflect"><stop offset="0" stop-color="#6dc7ff"/><stop offset="1" stop-color="#e6abff"/></linearGradient><path fill="url(#4CquzWHpYrD6x16pmy2oRb)" d="M44.549,32.888L25.93,47.73C25.141,48.357,24,47.822,24,46.842V17.158 c0-0.98,1.141-1.515,1.93-0.888l18.649,14.842C45.159,31.574,45.131,32.426,44.549,32.888z"/></svg>