<svg xmlns="http://www.w3.org/2000/svg"  viewBox="0 0 64 64" width="128px" height="128px"><linearGradient id="NIRhmNNseDLSSYMRB0cQYa" x1="32" x2="32" y1="8.191" y2="55.448" gradientUnits="userSpaceOnUse"><stop offset="0" stop-color="#6dc7ff"/><stop offset="1" stop-color="#e6abff"/></linearGradient><path fill="url(#NIRhmNNseDLSSYMRB0cQYa)" d="M32,7C18.193,7,7,18.193,7,32s11.193,25,25,25s25-11.193,25-25S45.807,7,32,7z M32,53	c-11.598,0-21-9.402-21-21c0-11.598,9.402-21,21-21s21,9.402,21,21C53,43.598,43.598,53,32,53z"/><linearGradient id="NIRhmNNseDLSSYMRB0cQYb" x1="32" x2="32" y1="6.574" y2="57.919" gradientUnits="userSpaceOnUse"><stop offset="0" stop-color="#1a6dff"/><stop offset="1" stop-color="#c822ff"/></linearGradient><path fill="url(#NIRhmNNseDLSSYMRB0cQYb)" d="M32,6C17.663,6,6,17.663,6,32s11.663,26,26,26s26-11.663,26-26S46.337,6,32,6z M32,56 C18.767,56,8,45.233,8,32S18.767,8,32,8s24,10.767,24,24S45.233,56,32,56z"/><linearGradient id="NIRhmNNseDLSSYMRB0cQYc" x1="32" x2="32" y1="6.574" y2="57.919" gradientUnits="userSpaceOnUse"><stop offset="0" stop-color="#1a6dff"/><stop offset="1" stop-color="#c822ff"/></linearGradient><path fill="url(#NIRhmNNseDLSSYMRB0cQYc)" d="M32,10c-12.131,0-22,9.869-22,22s9.869,22,22,22s22-9.869,22-22S44.131,10,32,10z M32,52 c-11.028,0-20-8.972-20-20s8.972-20,20-20s20,8.972,20,20S43.028,52,32,52z"/></svg>