<svg xmlns="http://www.w3.org/2000/svg"  viewBox="0 0 64 64" width="128px" height="128px"><linearGradient id="6LhWifwUlsnMVajXLkQFka" x1="31" x2="31" y1="5.333" y2="55.007" gradientUnits="userSpaceOnUse" spreadMethod="reflect"><stop offset="0" stop-color="#1a6dff"/><stop offset="1" stop-color="#c822ff"/></linearGradient><path fill="url(#6LhWifwUlsnMVajXLkQFka)" d="M31,6C17.766,6,7,16.767,7,30s10.767,24,24,24c0.692,0,1.394-0.03,2.086-0.09l-0.172-1.992 C32.279,51.973,31.635,52,31,52C18.869,52,9,42.131,9,30S18.869,8,31,8s22,9.869,22,22c0,4.467-1.331,8.767-3.848,12.435 l1.648,1.131C53.548,39.563,55,34.872,55,30C55,16.767,44.233,6,31,6z"/><linearGradient id="6LhWifwUlsnMVajXLkQFkb" x1="31" x2="31" y1="5.333" y2="55.007" gradientUnits="userSpaceOnUse" spreadMethod="reflect"><stop offset="0" stop-color="#1a6dff"/><stop offset="1" stop-color="#c822ff"/></linearGradient><path fill="url(#6LhWifwUlsnMVajXLkQFkb)" d="M31,10c-11.028,0-20,8.972-20,20s8.972,20,20,20c1.418,0,2.834-0.149,4.21-0.444l-0.42-1.955 C33.876,47.796,33,47.92,32,47.971V44h-2v3.971c-4-0.232-8.04-1.918-10.994-4.563l2.801-2.801l-1.414-1.414l-2.801,2.801 c-2.645-2.954-4.332-6.783-4.563-10.993H17v-2h-3.971c0.232-4.211,1.918-8.039,4.563-10.993l2.801,2.801l1.414-1.414l-2.801-2.801 C21.96,13.947,26,12.261,30,12.029V16h2v-3.971c5,0.251,8.683,2.21,11.722,5.249l-2.823,2.822l1.414,1.414l2.741-2.741 C47.52,21.854,49,25.757,49,30h-4v2h3.883c-0.255,2.284-0.939,4.509-2.025,6.525l1.76,0.949C50.176,36.582,51,33.306,51,30 C51,18.972,42.028,10,31,10z"/><linearGradient id="6LhWifwUlsnMVajXLkQFkc" x1="29.146" x2="29.146" y1="5.333" y2="55.007" gradientUnits="userSpaceOnUse" spreadMethod="reflect"><stop offset="0" stop-color="#1a6dff"/><stop offset="1" stop-color="#c822ff"/></linearGradient><path fill="url(#6LhWifwUlsnMVajXLkQFkc)" d="M24.707,37.707l4.265-4.265C29.567,33.794,30.259,34,31,34c2.206,0,4-1.794,4-4 c0-1.86-1-3.423-3-3.868V19h-2v7.132c-2,0.446-3,2.008-3,3.868c0,0.741,0.206,1.432,0.558,2.028l-4.265,4.265L24.707,37.707z M31,28 c1.103,0,2,0.897,2,2s-0.897,2-2,2s-2-0.897-2-2S29.897,28,31,28z"/><linearGradient id="6LhWifwUlsnMVajXLkQFkd" x1="44" x2="44" y1="5.333" y2="55.007" gradientUnits="userSpaceOnUse" spreadMethod="reflect"><stop offset="0" stop-color="#1a6dff"/><stop offset="1" stop-color="#c822ff"/></linearGradient><path fill="url(#6LhWifwUlsnMVajXLkQFkd)" d="M43 40H45V48H43z"/><linearGradient id="6LhWifwUlsnMVajXLkQFke" x1="44" x2="44" y1="5.333" y2="55.007" gradientUnits="userSpaceOnUse" spreadMethod="reflect"><stop offset="0" stop-color="#1a6dff"/><stop offset="1" stop-color="#c822ff"/></linearGradient><path fill="url(#6LhWifwUlsnMVajXLkQFke)" d="M44 50A2 2 0 1 0 44 54A2 2 0 1 0 44 50Z"/><linearGradient id="6LhWifwUlsnMVajXLkQFkf" x1="44" x2="44" y1="33.5" y2="58.545" gradientUnits="userSpaceOnUse" spreadMethod="reflect"><stop offset="0" stop-color="#6dc7ff"/><stop offset="1" stop-color="#e6abff"/></linearGradient><path fill="url(#6LhWifwUlsnMVajXLkQFkf)" d="M53.931,58H34.068c-1.104,0-2.096-0.562-2.65-1.503c-0.543-0.922-0.559-2.03-0.041-2.966 l9.934-17.958C41.855,34.588,42.861,34,44,34s2.145,0.588,2.689,1.573l9.934,17.957c0.518,0.937,0.502,2.045-0.041,2.967 C56.027,57.438,55.036,58,53.931,58z M44,36c-0.4,0-0.752,0.202-0.939,0.542l-9.934,17.957c-0.247,0.446-0.072,0.835,0.014,0.981 c0.191,0.325,0.539,0.52,0.928,0.52h19.863c0.389,0,0.736-0.194,0.928-0.52c0.086-0.146,0.261-0.535,0.014-0.982l-9.934-17.956 C44.752,36.202,44.4,36,44,36z"/></svg>