<svg xmlns="http://www.w3.org/2000/svg"  viewBox="0 0 64 64" width="128px" height="128px"><linearGradient id="QZXh~c_IMKciT85RLmvkfa" x1="52" x2="52" y1="29.5" y2="34.193" gradientUnits="userSpaceOnUse" spreadMethod="reflect"><stop offset="0" stop-color="#6dc7ff"/><stop offset="1" stop-color="#e6abff"/></linearGradient><path fill="url(#QZXh~c_IMKciT85RLmvkfa)" d="M52 30A2 2 0 1 0 52 34A2 2 0 1 0 52 30Z"/><linearGradient id="QZXh~c_IMKciT85RLmvkfb" x1="12" x2="12" y1="29.5" y2="34.193" gradientUnits="userSpaceOnUse" spreadMethod="reflect"><stop offset="0" stop-color="#6dc7ff"/><stop offset="1" stop-color="#e6abff"/></linearGradient><path fill="url(#QZXh~c_IMKciT85RLmvkfb)" d="M12 30A2 2 0 1 0 12 34A2 2 0 1 0 12 30Z"/><linearGradient id="QZXh~c_IMKciT85RLmvkfc" x1="24" x2="24" y1="5.333" y2="58.346" gradientUnits="userSpaceOnUse" spreadMethod="reflect"><stop offset="0" stop-color="#1a6dff"/><stop offset="1" stop-color="#c822ff"/></linearGradient><path fill="url(#QZXh~c_IMKciT85RLmvkfc)" d="M30,13.117v2.747c0,0.745,0.379,1.424,1.013,1.815c0.345,0.214,0.732,0.321,1.122,0.321 c0.325,0,0.652-0.075,0.956-0.228l7.724-3.855C41.546,13.552,42,12.817,42,12.001c0-0.817-0.454-1.552-1.187-1.918l-7.722-3.855 c-0.67-0.335-1.446-0.299-2.079,0.094C30.379,6.713,30,7.392,30,8.137v2.966c-8.476,0.805-15.667,6.674-18.113,14.903 C8.631,26.067,6,28.73,6,32c0,3.309,2.691,6,6,6s6-2.691,6-6c0-2.65-1.729-4.9-4.116-5.693C16.152,19.066,22.507,13.906,30,13.117z M32,8.137c0-0.019,0-0.075,0.063-0.114c0.027-0.017,0.052-0.021,0.072-0.021c0.029,0,0.052,0.011,0.063,0.016l7.722,3.855 c0.021,0.011,0.08,0.04,0.08,0.129c0,0.088-0.059,0.117-0.079,0.128l-7.724,3.855c-0.016,0.009-0.066,0.035-0.134-0.006 C32,15.939,32,15.883,32,15.864V13v-2V8.137z M16,32c0,2.206-1.794,4-4,4s-4-1.794-4-4s1.794-4,4-4S16,29.794,16,32z"/><linearGradient id="QZXh~c_IMKciT85RLmvkfd" x1="39.5" x2="39.5" y1="5.333" y2="58.346" gradientUnits="userSpaceOnUse" spreadMethod="reflect"><stop offset="0" stop-color="#1a6dff"/><stop offset="1" stop-color="#c822ff"/></linearGradient><path fill="url(#QZXh~c_IMKciT85RLmvkfd)" d="M58,32c0-3.309-2.691-6-6-6s-6,2.691-6,6c0,2.65,1.729,4.901,4.116,5.693 C47.749,45.254,40.923,50.543,33,50.958v-2.821c0-0.745-0.379-1.424-1.013-1.815c-0.632-0.393-1.411-0.429-2.078-0.094l-7.724,3.855 C21.454,50.449,21,51.184,21,52.001c0,0.816,0.454,1.551,1.187,1.917l7.722,3.855c0.305,0.152,0.632,0.228,0.957,0.228 c0.39,0,0.777-0.107,1.122-0.321C32.621,57.288,33,56.609,33,55.864v-2.906c8.904-0.422,16.572-6.414,19.113-14.964 C55.369,37.933,58,35.27,58,32z M31,55.864c0,0.019,0,0.075-0.063,0.114c-0.067,0.039-0.117,0.014-0.135,0.006l-7.722-3.855 c-0.021-0.011-0.08-0.04-0.08-0.128c0-0.089,0.059-0.118,0.079-0.129l7.724-3.855c0.01-0.005,0.032-0.016,0.062-0.016 c0.021,0,0.045,0.005,0.072,0.021C31,48.062,31,48.118,31,48.137V55.864z M52,36c-2.206,0-4-1.794-4-4s1.794-4,4-4s4,1.794,4,4 S54.206,36,52,36z"/><linearGradient id="QZXh~c_IMKciT85RLmvkfe" x1="32" x2="32" y1="5.333" y2="58.346" gradientUnits="userSpaceOnUse" spreadMethod="reflect"><stop offset="0" stop-color="#1a6dff"/><stop offset="1" stop-color="#c822ff"/></linearGradient><path fill="url(#QZXh~c_IMKciT85RLmvkfe)" d="M29,26c-1.654,0-3,1.346-3,3v6c0,1.654,1.346,3,3,3h6c1.654,0,3-1.346,3-3v-6 c0-1.654-1.346-3-3-3H29z M36,29v6c0,0.552-0.448,1-1,1h-6c-0.552,0-1-0.448-1-1v-6c0-0.552,0.448-1,1-1h6 C35.552,28,36,28.448,36,29z"/><linearGradient id="QZXh~c_IMKciT85RLmvkff" x1="32" x2="32" y1="28" y2="36.58" gradientUnits="userSpaceOnUse" spreadMethod="reflect"><stop offset="0" stop-color="#6dc7ff"/><stop offset="1" stop-color="#e6abff"/></linearGradient><path fill="url(#QZXh~c_IMKciT85RLmvkff)" d="M36,35c0,0.552-0.448,1-1,1h-6c-0.552,0-1-0.448-1-1v-6c0-0.552,0.448-1,1-1h6 c0.552,0,1,0.448,1,1V35z"/></svg>