<svg xmlns="http://www.w3.org/2000/svg"  viewBox="0 0 64 64" width="128px" height="128px"><linearGradient id="pHr6ZHI5nD6bUN4vtD1QKa" x1="30.735" x2="30.735" y1="26.167" y2="43.314" gradientUnits="userSpaceOnUse" spreadMethod="reflect"><stop offset="0" stop-color="#6dc7ff"/><stop offset="1" stop-color="#e6abff"/></linearGradient><path fill="url(#pHr6ZHI5nD6bUN4vtD1QKa)" d="M30,43c-3.916,0-7.568-2.108-9.53-5.503l1.732-1C23.808,39.274,26.796,41,30,41 c4.963,0,9-4.037,9-9c0-1.585-0.417-3.142-1.205-4.503l1.73-1.002C40.49,28.16,41,30.063,41,32C41,38.065,36.065,43,30,43z"/><linearGradient id="pHr6ZHI5nD6bUN4vtD1QKb" x1="21" x2="21" y1="11.333" y2="34.03" gradientUnits="userSpaceOnUse" spreadMethod="reflect"><stop offset="0" stop-color="#6dc7ff"/><stop offset="1" stop-color="#e6abff"/></linearGradient><path fill="url(#pHr6ZHI5nD6bUN4vtD1QKb)" d="M21,34c-6.065,0-11-4.935-11-11h2c0,4.963,4.037,9,9,9s9-4.037,9-9s-4.037-9-9-9v-2 c6.065,0,11,4.935,11,11S27.065,34,21,34z"/><linearGradient id="pHr6ZHI5nD6bUN4vtD1QKc" x1="39.736" x2="39.736" y1="34.5" y2="52.371" gradientUnits="userSpaceOnUse" spreadMethod="reflect"><stop offset="0" stop-color="#6dc7ff"/><stop offset="1" stop-color="#e6abff"/></linearGradient><path fill="url(#pHr6ZHI5nD6bUN4vtD1QKc)" d="M39,52c-3.914,0-7.565-2.107-9.527-5.499l1.73-1.002C32.81,48.275,35.797,50,39,50 c4.963,0,9-4.037,9-9c0-1.585-0.417-3.142-1.205-4.503l1.73-1.002C49.49,37.16,50,39.063,50,41C50,47.065,45.065,52,39,52z"/><linearGradient id="pHr6ZHI5nD6bUN4vtD1QKd" x1="21" x2="21" y1="6.667" y2="57.513" gradientUnits="userSpaceOnUse" spreadMethod="reflect"><stop offset="0" stop-color="#1a6dff"/><stop offset="1" stop-color="#c822ff"/></linearGradient><path fill="url(#pHr6ZHI5nD6bUN4vtD1QKd)" d="M24 26L22 26 22 18 18 18 18 20 20 20 20 26 18 26 18 28 24 28z"/><linearGradient id="pHr6ZHI5nD6bUN4vtD1QKe" x1="32" x2="32" y1="6.667" y2="57.513" gradientUnits="userSpaceOnUse" spreadMethod="reflect"><stop offset="0" stop-color="#1a6dff"/><stop offset="1" stop-color="#c822ff"/></linearGradient><path fill="url(#pHr6ZHI5nD6bUN4vtD1QKe)" d="M48.082,26.896c-1.506-4.112-4.773-7.472-8.994-8.998C36.993,12.135,31.478,8,25,8h-5v0.051 C12.195,8.569,6,15.066,6,23c0,6.478,4.135,11.993,9.897,14.087c1.526,4.221,4.885,7.488,8.998,8.994 C26.904,51.646,32.1,55.558,38,55.958V56h5c8.271,0,15-6.729,15-15C58,34.694,53.959,29.018,48.082,26.896z M53.949,42h2 c-0.108,1.407-0.431,2.753-0.952,4h-1.872C53.574,44.734,53.857,43.395,53.949,42z M53.945,40c-0.092-1.377-0.358-2.722-0.809-4 h1.847c0.529,1.258,0.866,2.605,0.975,4H53.945z M53.931,34h-1.686c-0.859-1.625-2.009-3.098-3.434-4.333 c-0.017-0.109-0.04-0.216-0.059-0.324C50.886,30.403,52.667,32.03,53.931,34z M40.896,43h-0.732c1.241-1.148,2.294-2.494,3.093-4 h1.68C43.901,40.613,42.52,41.979,40.896,43z M46.958,31h-2.013c-0.092-1.377-0.358-2.722-0.81-4h1.848 C46.512,28.258,46.849,29.605,46.958,31z M45.997,37h-1.872c0.449-1.266,0.732-2.605,0.824-4h2 C46.842,34.407,46.519,35.753,45.997,37z M44.931,25h-1.686c-0.862-1.63-2.016-3.108-3.447-4.345 c-0.016-0.104-0.029-0.209-0.048-0.312C41.885,21.402,43.667,23.03,44.931,25z M31.896,34h-0.732c1.241-1.148,2.294-2.494,3.093-4 h1.68C34.901,31.613,33.52,32.979,31.896,34z M37.949,22h-2c-0.093-1.395-0.375-2.734-0.824-4h1.872 C37.519,19.247,37.842,20.593,37.949,22z M36.997,28h-1.872c0.449-1.266,0.732-2.605,0.824-4h2 C37.842,25.407,37.519,26.753,36.997,28z M35.937,16h-1.68c-0.799-1.506-1.851-2.852-3.093-4h0.732 C33.52,13.021,34.901,14.387,35.937,16z M8,23c0-7.168,5.832-13,13-13s13,5.832,13,13s-5.832,13-13,13S8,30.168,8,23z M18.342,37.75 c0.543,0.098,1.096,0.162,1.658,0.199V38h5c8.042,0,14.606-6.365,14.966-14.32C41.905,26,43,28.925,43,32c0,7.168-5.832,13-13,13 C25.029,45,20.504,42.105,18.342,37.75z M27.343,46.751C28.211,46.91,29.098,47,30,47h4c8.042,0,14.606-6.365,14.966-14.32 C50.905,35,52,37.924,52,41c0,7.168-5.832,13-13,13C34.03,54,29.505,51.106,27.343,46.751z M49.896,52h-0.732 c1.241-1.148,2.294-2.494,3.093-4h1.68C52.901,49.613,51.52,50.979,49.896,52z"/></svg>