<svg xmlns="http://www.w3.org/2000/svg"  viewBox="0 0 64 64" width="128px" height="128px"><linearGradient id="WT3W3vlOjYIIJc4s9EJwLa" x1="32" x2="32" y1="1077" y2="1119" gradientTransform="translate(0 -1066)" gradientUnits="userSpaceOnUse"><stop offset="0" stop-color="#1a6dff"/><stop offset="1" stop-color="#c822ff"/></linearGradient><path fill="url(#WT3W3vlOjYIIJc4s9EJwLa)" d="M53,13c2.8,0,5,2.2,5,5v28c0,2.8-2.2,5-5,5H11c-2.8,0-5-2.2-5-5V18c0-2.8,2.2-5,5-5H53 M53,11H11	c-3.9,0-7,3.1-7,7v28c0,3.9,3.1,7,7,7h42c3.9,0,7-3.1,7-7V18C60,14.1,56.9,11,53,11L53,11z"/><linearGradient id="WT3W3vlOjYIIJc4s9EJwLb" x1="32" x2="32" y1="22.259" y2="40.623" gradientUnits="userSpaceOnUse"><stop offset="0" stop-color="#6dc7ff"/><stop offset="1" stop-color="#e6abff"/></linearGradient><path fill="url(#WT3W3vlOjYIIJc4s9EJwLb)" d="M35,42h-2c-0.6,0-1-0.4-1-1V27c0-0.6-0.4-1-1-1h-2c-0.6,0-1-0.4-1-1v-2c0-0.6,0.4-1,1-1h3c2.2,0,4,1.8,4,4v15 C36,41.6,35.6,42,35,42z"/></svg>