<svg xmlns="http://www.w3.org/2000/svg"  viewBox="0 0 64 64" width="128px" height="128px"><linearGradient id="SVGID_1_" x1="35" x2="35" y1="617.781" y2="613.045" gradientTransform="matrix(1 0 0 -1 0 654)" gradientUnits="userSpaceOnUse"><stop offset="0" stop-color="#8cc5fc"/><stop offset="1" stop-color="#d5a8fb"/></linearGradient><path fill="url(#SVGID_1_)" d="M34,36h2v5h-2V36z"/><linearGradient id="SVGID_2_" x1="43" x2="43" y1="617.781" y2="613.045" gradientTransform="matrix(1 0 0 -1 0 654)" gradientUnits="userSpaceOnUse"><stop offset="0" stop-color="#8cc5fc"/><stop offset="1" stop-color="#d5a8fb"/></linearGradient><path fill="url(#SVGID_2_)" d="M42,36h2v5h-2V36z"/><linearGradient id="SVGID_3_" x1="43" x2="43" y1="626.781" y2="622.045" gradientTransform="matrix(1 0 0 -1 0 654)" gradientUnits="userSpaceOnUse"><stop offset="0" stop-color="#8cc5fc"/><stop offset="1" stop-color="#d5a8fb"/></linearGradient><path fill="url(#SVGID_3_)" d="M42,27h2v5h-2V27z"/><linearGradient id="SVGID_4_" x1="35" x2="35" y1="626.781" y2="622.045" gradientTransform="matrix(1 0 0 -1 0 654)" gradientUnits="userSpaceOnUse"><stop offset="0" stop-color="#8cc5fc"/><stop offset="1" stop-color="#d5a8fb"/></linearGradient><path fill="url(#SVGID_4_)" d="M34,27h2v5h-2V27z"/><linearGradient id="SVGID_5_" x1="39" x2="39" y1="5.723" y2="55.297" gradientUnits="userSpaceOnUse"><stop offset="0" stop-color="#1a6dff"/><stop offset="1" stop-color="#c822ff"/></linearGradient><path fill="url(#SVGID_5_)" d="M30.9,33h16.1c1.1,0,1.9-0.9,1.9-1.9v-3.1c0-1.1-0.9-1.9-1.9-1.9H30.9c-1.1,0-1.9,0.9-1.9,1.9v3.1 C29,32.1,29.9,33,30.9,33z M31,28h16v3H31V28z"/><linearGradient id="SVGID_6_" x1="39" x2="39" y1="5.723" y2="55.297" gradientUnits="userSpaceOnUse"><stop offset="0" stop-color="#1a6dff"/><stop offset="1" stop-color="#c822ff"/></linearGradient><path fill="url(#SVGID_6_)" d="M30.9,42h16.1c1.1,0,1.9-0.9,1.9-1.9v-3.1c0-1.1-0.9-1.9-1.9-1.9H30.9c-1.1,0-1.9,0.9-1.9,1.9v3.1 C29,41.1,29.9,42,30.9,42z M31,37h16v3H31V37z"/><linearGradient id="SVGID_7_" x1="32" x2="32" y1="5.723" y2="55.297" gradientUnits="userSpaceOnUse"><stop offset="0" stop-color="#1a6dff"/><stop offset="1" stop-color="#c822ff"/></linearGradient><path fill="url(#SVGID_7_)" d="M56,23c1.1,0,2-0.9,2-2v-2c0-1.1-0.9-2-2-2H43v-5c1.1,0,2-0.9,2-2V8c0-1.1-0.9-2-2-2H8C6.9,6,6,6.9,6,8v2 c0,1.1,0.9,2,2,2v33H6v2h16v9h-2v2h38v-2h-2L56,23L56,23z M8,8h35l0,2h0H8V8z M22,33h-6v-3h6V33z M22,28h-6.1 c-1.1,0-1.9,0.9-1.9,1.9v3.1c0,1.1,0.9,1.9,1.9,1.9H22v10H11h-1v-2h6v-2h-6v-2h4v-2h-4V12h31v5H22c-1.1,0-2,0.9-2,2v0h-4.1 c-1.1,0-1.9,0.9-1.9,1.9v3.1c0,1.1,0.9,1.9,1.9,1.9H22V28z M22,24h-6v-3h4v0c0,1.1,0.9,2,2,2h0V24z M42,56h-6v-5h6V56z M42,49h-6 v-1c0-0.6,0.4-1,1-1h4c0.6,0,1,0.4,1,1V49z M54,48h-4v2h4v2h-6v2h6v2H44v-8c0-1.7-1.3-3-3-3h-4c-1.7,0-3,1.3-3,3v8h-9h-1v-2h6v-2 h-6v-2h4v-2h-4V23h30V48z M22,21l0-2l34,0l0,2h0H22z"/></svg>