<svg xmlns="http://www.w3.org/2000/svg"  viewBox="0 0 64 64" width="128px" height="128px"><linearGradient id="mrEXyqFwsG7JHoyviM71Da" x1="139.548" x2="148.854" y1="165.475" y2="111.675" gradientTransform="scale(1 -1) rotate(-9.816 -880.13 571.328)" gradientUnits="userSpaceOnUse"><stop offset=".037" stop-color="#6dc7ff"/><stop offset=".281" stop-color="#e6abff"/></linearGradient><path fill="url(#mrEXyqFwsG7JHoyviM71Da)" d="M51.769,18l2.993-5.571l-3.941-0.682c-0.073-0.267,8.261-6.69,8.261-6.69l-2.993,5.571	l3.941,0.682L51.769,18z"/><linearGradient id="mrEXyqFwsG7JHoyviM71Db" x1="-890.666" x2="-881.359" y1="-12.776" y2="-66.575" gradientTransform="scale(-1) rotate(-9.816 -389.398 -5143.154)" gradientUnits="userSpaceOnUse"><stop offset=".038" stop-color="#6dc7ff"/><stop offset=".301" stop-color="#e6abff"/></linearGradient><path fill="url(#mrEXyqFwsG7JHoyviM71Db)" d="M4.03,11.31l3.941-0.682L4.978,5.057c0,0,8.334,6.423,8.261,6.69l-3.941,0.682L12.291,18	L4.03,11.31z"/><linearGradient id="mrEXyqFwsG7JHoyviM71Dc" x1="36.03" x2="36.03" y1="2682.709" y2="2687.166" gradientTransform="translate(0 -2656)" gradientUnits="userSpaceOnUse"><stop offset="0" stop-color="#6dc7ff"/><stop offset="1" stop-color="#e6abff"/></linearGradient><path fill="url(#mrEXyqFwsG7JHoyviM71Dc)" d="M36.03,27c-1.105,0-2,0.895-2,2s0.895,2,2,2s2-0.895,2-2S37.134,27,36.03,27z"/><linearGradient id="mrEXyqFwsG7JHoyviM71Dd" x1="28.03" x2="28.03" y1="2682.709" y2="2687.166" gradientTransform="translate(0 -2656)" gradientUnits="userSpaceOnUse"><stop offset="0" stop-color="#6dc7ff"/><stop offset="1" stop-color="#e6abff"/></linearGradient><path fill="url(#mrEXyqFwsG7JHoyviM71Dd)" d="M28.03,27c-1.105,0-2,0.895-2,2s0.895,2,2,2s2-0.895,2-2S29.134,27,28.03,27z"/><linearGradient id="mrEXyqFwsG7JHoyviM71De" x1="32.072" x2="32.072" y1="23.5" y2="15.5" gradientTransform="matrix(1 0 0 -1 0 66)" gradientUnits="userSpaceOnUse"><stop offset="0" stop-color="#1a6dff"/><stop offset="1" stop-color="#c822ff"/></linearGradient><path fill="url(#mrEXyqFwsG7JHoyviM71De)" d="M32.072,42.5c-2.2,0-4,1.8-4,4s1.8,4,4,4s4-1.8,4-4S34.272,42.5,32.072,42.5z M32.072,48.5 c-1.1,0-2-0.9-2-2s0.9-2,2-2c1.1,0,2,0.9,2,2S33.172,48.5,32.072,48.5z"/><linearGradient id="mrEXyqFwsG7JHoyviM71Df" x1="32.072" x2="32.072" y1="58" y2="6" gradientTransform="matrix(1 0 0 -1 0 66)" gradientUnits="userSpaceOnUse"><stop offset="0" stop-color="#1a6dff"/><stop offset="1" stop-color="#c822ff"/></linearGradient><path fill="url(#mrEXyqFwsG7JHoyviM71Df)" d="M54.114,52h-3V36c0-1.7-1.3-3-3-3h-0.466l-1.088-2.176c0.896-0.824,1.47-2.002,1.47-3.324 c0-1.57-0.798-2.95-2-3.756v-1.79C46.03,14.26,39.75,8,32.03,8s-14,6.26-14,13.954v1.79c-1.202,0.805-2,2.186-2,3.756 c0,1.322,0.574,2.5,1.47,3.324L16.412,33h-0.297c-1.7,0-3,1.3-3,3v16h-3c-0.6,0-1,0.4-1,1v2.5c0,2.5,2,4.5,4.5,4.5h36.9 c2.5,0,4.5-2,4.5-4.5V53C55.114,52.4,54.715,52,54.114,52z M13.114,57.9c-1.1-0.2-2-1.2-2-2.4V54h2V57.9z M45.412,33h-1.997h-0.206 c0.128-0.327,0.244-0.659,0.342-1h0.05c0.424,0,0.825-0.08,1.214-0.193L45.412,33z M46.03,27.5c0,1.253-0.903,2.284-2.073,2.463 c0.046-0.426,0.073-0.858,0.073-1.296v-3.622C45.164,25.254,46.03,26.272,46.03,27.5z M20.03,21.954 c0-6.592,5.383-11.954,12-11.954s12,5.362,12,11.954V23h-10c-2.393,0-4-1.735-4-4.318V18h-2v0.682c0,2.583-1.586,4.318-3.947,4.318 H20.03V21.954z M42.03,25v3.667c0,1.556-0.374,3.02-1.013,4.333H23.043c-0.639-1.313-1.013-2.777-1.013-4.333V25h2.053 c2.139,0,3.913-1.023,4.952-2.674C30.083,23.977,31.873,25,34.03,25H42.03z M20.03,25.045v3.622c0,0.438,0.027,0.87,0.073,1.296 c-1.169-0.179-2.073-1.21-2.073-2.463C18.03,26.272,18.895,25.254,20.03,25.045z M19.245,31.807C19.633,31.92,20.035,32,20.459,32 h0.05c0.098,0.341,0.214,0.673,0.342,1h-0.037h-2.167L19.245,31.807z M49.114,58h-34V36c0-0.6,0.4-1,1-1h32c0.6,0,1,0.4,1,1V58z M53.114,55.5c0,1.2-0.9,2.2-2,2.5v-4h2V55.5z"/></svg>