<svg xmlns="http://www.w3.org/2000/svg"  viewBox="0 0 64 64" width="128px" height="128px"><linearGradient id="taVGQmgYU2mkLTn~d~aNDa" x1="32" x2="32" y1="5.668" y2="59.182" gradientUnits="userSpaceOnUse" spreadMethod="reflect"><stop offset="0" stop-color="#1a6dff"/><stop offset="1" stop-color="#c822ff"/></linearGradient><path fill="url(#taVGQmgYU2mkLTn~d~aNDa)" d="M51.626,17.124L45,13.076V13h-0.12L34.627,6.739c-1.619-0.989-3.632-0.991-5.254-0.001 L19.12,13H19v0.076l-6.626,4.048C10.887,18.032,10,19.606,10,21.335v4.894v3.774v6c0,12.131,9.869,22,22,22s22-9.869,22-22v-6 v-3.774v-4.894C54,19.606,53.113,18.032,51.626,17.124z M52,21.335v0.906c-0.12-0.089-0.238-0.181-0.366-0.26L51,21.588v-2.425 C51.625,19.716,52,20.488,52,21.335z M49,17.863v2.486l-4-2.476V15.42L49,17.863z M39,14.159v-2.404l4,2.443v2.437L39,14.159z M37,10.533v2.388l-2.371-1.468c-0.512-0.317-1.064-0.522-1.629-0.639V8.191c0.199,0.071,0.399,0.142,0.584,0.255L37,10.533z M30.415,8.447C30.601,8.333,30.801,8.262,31,8.191v2.624c-0.565,0.117-1.118,0.322-1.629,0.639L27,12.921v-2.388L30.415,8.447z M21,16.635v-2.437l4-2.443v2.405L21,16.635z M19,17.874l-4,2.476v-2.486l4-2.443V17.874z M13,19.163v2.425l-0.634,0.392 c-0.129,0.08-0.247,0.171-0.366,0.26v-0.906C12,20.488,12.375,19.716,13,19.163z M52,36.003c0,11.028-8.972,20-20,20 s-20-8.972-20-20v-6v-3.774c0-1.045,0.53-1.997,1.419-2.547l17.004-10.526c0.486-0.302,1.031-0.452,1.577-0.452 s1.09,0.15,1.577,0.452l17.004,10.526C51.47,24.231,52,25.183,52,26.228v3.774V36.003z"/><linearGradient id="taVGQmgYU2mkLTn~d~aNDb" x1="32" x2="32" y1="5.669" y2="59.182" gradientUnits="userSpaceOnUse" spreadMethod="reflect"><stop offset="0" stop-color="#1a6dff"/><stop offset="1" stop-color="#c822ff"/></linearGradient><path fill="url(#taVGQmgYU2mkLTn~d~aNDb)" d="M46.542,25.562l-12.998-7.799c-0.953-0.572-2.137-0.572-3.09,0l-12.997,7.799 C16.559,26.1,16,27.087,16,28.136v7.866c0,8.822,7.178,16,16,16s16-7.178,16-16v-7.866C48,27.087,47.441,26.1,46.542,25.562z M46,36.003c0,7.72-6.28,14-14,14s-14-6.28-14-14v-7.866c0-0.351,0.187-0.68,0.487-0.859l12.998-7.799 c0.159-0.096,0.337-0.144,0.516-0.144s0.356,0.048,0.516,0.144l12.998,7.799c0.3,0.18,0.486,0.509,0.486,0.859V36.003z"/><linearGradient id="taVGQmgYU2mkLTn~d~aNDc" x1="32" x2="32" y1="25.75" y2="38.938" gradientUnits="userSpaceOnUse" spreadMethod="reflect"><stop offset="0" stop-color="#6dc7ff"/><stop offset="1" stop-color="#e6abff"/></linearGradient><path fill="url(#taVGQmgYU2mkLTn~d~aNDc)" d="M31 26H33V38H31z"/><linearGradient id="taVGQmgYU2mkLTn~d~aNDd" x1="32" x2="32" y1="39.377" y2="44.762" gradientUnits="userSpaceOnUse" spreadMethod="reflect"><stop offset="0" stop-color="#6dc7ff"/><stop offset="1" stop-color="#e6abff"/></linearGradient><path fill="url(#taVGQmgYU2mkLTn~d~aNDd)" d="M32,44.003c-1.103,0-2-0.897-2-2s0.897-2,2-2s2,0.897,2,2S33.103,44.003,32,44.003z M32,42.002L32,42.002L32,42.002z"/></svg>