<svg xmlns="http://www.w3.org/2000/svg"  viewBox="0 0 64 64" width="128px" height="128px"><linearGradient id="DMWDIOp18GJL24YgTzh7_a" x1="32" x2="32" y1="7.511" y2="56.362" gradientUnits="userSpaceOnUse"><stop offset="0" stop-color="#1a6dff"/><stop offset="1" stop-color="#c822ff"/></linearGradient><path fill="url(#DMWDIOp18GJL24YgTzh7_a)" d="M51,56H13c-2.757,0-5-2.243-5-5V13c0-2.757,2.243-5,5-5h38c2.757,0,5,2.243,5,5v38 C56,53.757,53.757,56,51,56z M13,10c-1.654,0-3,1.346-3,3v38c0,1.654,1.346,3,3,3h38c1.654,0,3-1.346,3-3V13c0-1.654-1.346-3-3-3 H13z"/><linearGradient id="DMWDIOp18GJL24YgTzh7_b" x1="32" x2="32" y1="12.957" y2="50.083" gradientUnits="userSpaceOnUse"><stop offset="0" stop-color="#6dc7ff"/><stop offset="1" stop-color="#e6abff"/></linearGradient><path fill="url(#DMWDIOp18GJL24YgTzh7_b)" d="M49.053,13H14.947C13.874,13,13,13.874,13,14.947v34.105C13,50.126,13.874,51,14.947,51	h34.105C50.126,51,51,50.126,51,49.053V14.947C51,13.874,50.126,13,49.053,13z"/></svg>