<svg xmlns="http://www.w3.org/2000/svg"  viewBox="0 0 64 64" width="128px" height="128px"><linearGradient id="NSemz~9X5IgFNOr1flBTia" x1="34.5" x2="34.5" y1="19.34" y2="37.128" gradientUnits="userSpaceOnUse"><stop offset="0" stop-color="#6dc7ff"/><stop offset="1" stop-color="#e6abff"/></linearGradient><path fill="url(#NSemz~9X5IgFNOr1flBTia)" d="M30,38.584c-0.769,0-1.536-0.292-2.121-0.877l-5.293-5.293l2.828-2.828L30,34.172 l13.586-13.586l2.828,2.828L32.121,37.707C31.536,38.292,30.769,38.584,30,38.584z"/><g><linearGradient id="NSemz~9X5IgFNOr1flBTib" x1="31.999" x2="31.999" y1="6.404" y2="56.8" gradientUnits="userSpaceOnUse"><stop offset="0" stop-color="#1a6dff"/><stop offset="1" stop-color="#c822ff"/></linearGradient><path fill="url(#NSemz~9X5IgFNOr1flBTib)" d="M57.645,31.864C57.289,31.323,56.706,31,56.087,31h-2.111C53.449,18,42.898,7.999,30,7.999 C16.766,7.999,5.999,18.766,5.999,32S16.766,56.001,30,56.001c6.267,0,12.196-2.4,16.696-6.759l-1.391-1.438 C41.18,51.8,35.744,54.001,30,54.001C17.869,54.001,7.999,44.131,7.999,32C7.999,19.869,17.869,9.999,30,9.999 C41.796,9.999,51.45,20,51.975,31h-2.061c-0.619,0-1.202,0.323-1.559,0.864c-0.398,0.604-0.466,1.397-0.177,2.069l2.268,5.283 c0.472,1.1,1.45,1.783,2.554,1.783c1.104,0,2.082-0.684,2.554-1.783l2.268-5.283C58.111,33.262,58.043,32.469,57.645,31.864z M55.984,33.145l-2.268,5.283c-0.313,0.727-1.119,0.727-1.432,0l-2.268-5.283C49.993,33.089,50,33.035,50.01,33h5.981 C56.002,33.035,56.008,33.089,55.984,33.145z"/><linearGradient id="NSemz~9X5IgFNOr1flBTic" x1="30" x2="30" y1="6.404" y2="56.8" gradientUnits="userSpaceOnUse"><stop offset="0" stop-color="#1a6dff"/><stop offset="1" stop-color="#c822ff"/></linearGradient><path fill="url(#NSemz~9X5IgFNOr1flBTic)" d="M30,18c3.333,0,6.395,1.175,8.802,3.127l1.422-1.422C37.449,17.394,33.885,16,30,16 c-8.822,0-16,7.178-16,16s7.178,16,16,16s16-7.178,16-16c0-0.338-0.03-0.668-0.051-1h-2C43.973,31.332,44,31.662,44,32 c0,7.72-6.28,14-14,14s-14-6.28-14-14S22.28,18,30,18z"/></g></svg>