<svg xmlns="http://www.w3.org/2000/svg"  viewBox="0 0 64 64" width="128px" height="128px"><linearGradient id="iIn2YOaEX_a2Qr55RMeb5a" x1="32" x2="32" y1="8.66" y2="55.492" gradientUnits="userSpaceOnUse"><stop offset="0" stop-color="#1a6dff"/><stop offset="1" stop-color="#c822ff"/></linearGradient><path fill="url(#iIn2YOaEX_a2Qr55RMeb5a)" d="M55,26v-3c0-0.553-0.447-1-1-1v-4.793C54,14.336,51.664,12,48.793,12H39v-0.271 C39,9.673,37.327,8,35.271,8H13.729C11.673,8,10,9.673,10,11.729V23c-0.553,0-1,0.447-1,1v6c0,0.553,0.447,1,1,1v21.271 C10,54.327,11.673,56,13.729,56h35.063C51.664,56,54,53.664,54,50.793V47V31c0.553,0,1-0.447,1-1v-1c0-0.553-0.447-1-1-1v-1 C54.553,27,55,26.553,55,26z M48.793,14C50.562,14,52,15.438,52,17.207v0.914C51.09,17.431,49.949,17,48.692,17H39v-3H48.793z M33.298,54H13.729C12.775,54,12,53.225,12,52.271V11.729C12,10.775,12.775,10,13.729,10H18v0.439C18,11.301,18.699,12,19.561,12 h9.877C30.301,12,31,11.301,31,10.439V10h4.271C36.225,10,37,10.775,37,11.729v40.541C37,53.225,36.225,54,35.271,54H33.298z M48.793,54H38.555C38.83,53.481,39,52.898,39,52.271V52h9.692c1.252,0,2.39-0.428,3.298-1.114C51.94,52.611,50.53,54,48.793,54z M52,47c0,1.654-1.483,3-3.308,3H39V19h9.692C50.517,19,52,20.346,52,22v22V47z"/><linearGradient id="iIn2YOaEX_a2Qr55RMeb5b" x1="25" x2="25" y1="8.66" y2="55.492" gradientUnits="userSpaceOnUse"><stop offset="0" stop-color="#1a6dff"/><stop offset="1" stop-color="#c822ff"/></linearGradient><rect width="12" height="2" x="19" y="50" fill="url(#iIn2YOaEX_a2Qr55RMeb5b)"/><linearGradient id="iIn2YOaEX_a2Qr55RMeb5c" x1="24.5" x2="24.5" y1="8.66" y2="55.492" gradientUnits="userSpaceOnUse"><stop offset="0" stop-color="#1a6dff"/><stop offset="1" stop-color="#c822ff"/></linearGradient><path fill="url(#iIn2YOaEX_a2Qr55RMeb5c)" d="M28.752,25h-8.504C18.457,25,17,26.457,17,28.248v9.504C17,39.543,18.457,41,20.248,41h8.504 C30.543,41,32,39.543,32,37.752v-9.504C32,26.457,30.543,25,28.752,25z M30,37.752C30,38.44,29.44,39,28.752,39h-8.504 C19.56,39,19,38.44,19,37.752v-9.504C19,27.56,19.56,27,20.248,27h8.504C29.44,27,30,27.56,30,28.248V37.752z"/><linearGradient id="iIn2YOaEX_a2Qr55RMeb5d" x1="24.5" x2="24.5" y1="29.149" y2="36.783" gradientUnits="userSpaceOnUse"><stop offset="0" stop-color="#6dc7ff"/><stop offset="1" stop-color="#e6abff"/></linearGradient><path fill="url(#iIn2YOaEX_a2Qr55RMeb5d)" d="M26.753,37h-4.506C21.558,37,21,36.442,21,35.753v-5.506C21,29.558,21.558,29,22.247,29h4.506	C27.442,29,28,29.558,28,30.247v5.506C28,36.442,27.442,37,26.753,37z"/></svg>