<?xml version="1.0" encoding="UTF-8"?>
<svg xmlns="http://www.w3.org/2000/svg" xmlns:xlink="http://www.w3.org/1999/xlink" viewBox="0 0 128 128" width="128px" height="128px">
<g id="surface208322322">
<path style=" stroke:none;fill-rule:nonzero;fill:rgb(36.862746%,41.568628%,82.352942%);fill-opacity:1;" d="M 58 16 C 51.0625 16 44.605469 18.246094 39.8125 22.4375 C 35.019531 26.628906 32 32.84375 32 40 L 40 40 C 40 35.003906 41.910156 31.222656 45.078125 28.453125 C 48.246094 25.683594 52.785156 24 58 24 C 67.992188 24 76 32.007812 76 42 C 76 46.167969 73.636719 52.460938 69.6875 59.125 C 65.738281 65.789062 60.347656 72.871094 54.9375 79.296875 C 44.117188 92.148438 33.265625 102.328125 33.265625 102.328125 L 32 103.515625 L 32 112 L 88 112 L 88 104 L 42.65625 104 C 45.601562 101.167969 51.847656 95.394531 61.0625 84.453125 C 66.652344 77.816406 72.261719 70.460938 76.5625 63.203125 C 80.863281 55.945312 84 48.832031 84 42 C 84 27.6875 72.3125 16 58 16 Z M 58 16 "/>
</g>
</svg>
