<svg xmlns="http://www.w3.org/2000/svg"  viewBox="0 0 48 48" width="144px" height="144px"><path fill="#3ddab4" d="M42,42H6V6h36V42z"/><rect width="19.836" height="3" x="14.026" y="22.556" fill="#6c19ff" transform="rotate(-45.001 23.944 24.056)"/><path fill="#6c19ff" d="M32,20c-2.206,0-4-1.794-4-4s1.794-4,4-4s4,1.794,4,4S34.206,20,32,20z"/><path fill="#2100c4" d="M29.897,15.982l-1.579,1.579c0.405,0.952,1.169,1.716,2.121,2.121l1.579-1.579L29.897,15.982z"/><path fill="#6c19ff" d="M15.944,12.014c2.206,0,4,1.794,4,4s-1.794,4-4,4s-4-1.794-4-4 C11.944,13.808,13.738,12.014,15.944,12.014z"/><polygon fill="#6c19ff" points="23.837,6 15.514,14.323 17.635,16.444 28.08,6"/><path fill="#6c19ff" d="M35.968,32.044c0,2.206-1.794,4-4,4s-4-1.794-4-4c0-2.206,1.794-4,4-4S35.968,29.838,35.968,32.044 z"/><path fill="#6c19ff" d="M16,36c-2.206,0-4-1.794-4-4s1.794-4,4-4s4,1.794,4,4S18.206,36,16,36z"/><polygon fill="#6c19ff" points="33.659,31.614 31.538,33.735 39.803,42 42,42 42,39.955"/><path fill="#2100c4" d="M17.635,16.444l1.991-1.991c-0.405-0.952-1.169-1.716-2.121-2.121l-1.991,1.991L17.635,16.444z"/><path fill="#2100c4" d="M33.659,31.614l-2.121,2.121l1.991,1.991c0.952-0.405,1.716-1.169,2.121-2.121L33.659,31.614z"/><path fill="#2100c4" d="M17.992,32.129l1.691-1.691c-0.405-0.952-1.169-1.716-2.121-2.121l-1.691,1.691L17.992,32.129z"/></svg>