<svg xmlns="http://www.w3.org/2000/svg"  viewBox="0 0 48 48" width="144px" height="144px"><path fill="#f55376" d="M28.431,21.886L28.431,21.886c0.592-2.287,0.572-4.768-0.208-7.183 c-2.141-6.633-9.141-10.237-15.634-8.05s-10.021,9.338-7.88,15.971c0.78,2.415,2.208,4.422,4.017,5.9l-0.001,0l15.27,13.462 L28.431,21.886z"/><path fill="#f55376" d="M19.569,21.886L19.569,21.886c-0.592-2.287-0.572-4.768,0.208-7.183 c2.141-6.633,9.141-10.237,15.634-8.05s10.021,9.338,7.88,15.971c-0.78,2.415-2.208,4.422-4.017,5.9l0.001,0l-15.27,13.462 L19.569,21.886z"/><polygon fill="#eb0000" points="20.948,34.122 13.817,20.88 11.07,25 5,25 3,21 8.93,21 14.183,13.12 21.052,25.878 23.839,21 33,21 33,25 26.161,25"/><path fill="#f55376" d="M4.709,22.624C4.536,22.085,4.412,21.543,4.312,21H0v4h5.759C5.339,24.26,4.982,23.469,4.709,22.624 z"/></svg>