<svg xmlns="http://www.w3.org/2000/svg"  viewBox="0 0 48 48" width="144px" height="144px"><rect width="9" height="4" x="8.578" y="28.08" fill="#3dd9eb" transform="rotate(-29.105 13.079 30.081)"/><circle cx="8.273" cy="32.755" r="3" fill="#3dd9eb"/><rect width="9" height="4" x="30.422" y="15.92" fill="#3dd9eb" transform="rotate(-29.105 34.923 17.92)"/><circle cx="39.727" cy="15.245" r="3" fill="#3dd9eb"/><path fill="#00b3d7" d="M36.801,14.584c-0.157,0.695-0.069,1.448,0.305,2.119c0.374,0.671,0.967,1.143,1.641,1.376 l1.079-0.601l-1.946-3.495L36.801,14.584z"/><path fill="#00b3d7" d="M11.199,33.416c0.157-0.695,0.069-1.448-0.305-2.119c-0.374-0.671-0.967-1.143-1.641-1.376 l-1.079,0.601l1.946,3.495L11.199,33.416z"/><rect width="4" height="9" x="11.086" y="13.407" fill="#3dd9eb" transform="rotate(-60.824 13.087 17.908)"/><circle cx="8.283" cy="15.226" r="3" fill="#3dd9eb"/><rect width="4" height="9" x="32.914" y="25.593" fill="#3dd9eb" transform="rotate(-60.824 34.916 30.095)"/><circle cx="39.717" cy="32.774" r="3" fill="#3dd9eb"/><path fill="#00b3d7" d="M38.74,29.938c-0.674,0.232-1.268,0.703-1.642,1.374c-0.375,0.671-0.464,1.424-0.307,2.119 l1.079,0.602l1.95-3.493L38.74,29.938z"/><path fill="#00b3d7" d="M9.26,18.062c0.674-0.232,1.268-0.703,1.642-1.374c0.375-0.671,0.464-1.424,0.307-2.119 l-1.079-0.602l-1.95,3.493L9.26,18.062z"/><rect width="4" height="9" x="22" y="32" fill="#3dd9eb"/><circle cx="24" cy="42" r="3" fill="#3dd9eb"/><rect width="4" height="9" x="22" y="7" fill="#3dd9eb"/><circle cx="24" cy="6" r="3" fill="#3dd9eb"/><circle cx="24" cy="24" r="11" fill="#d7fffe"/><path fill="#ddbaff" d="M28.4,25.55h-8.8c-0.552,0-1-0.448-1-1s0.448-1,1-1h8.8c0.552,0,1,0.448,1,1 S28.952,25.55,28.4,25.55z"/><path fill="#6c19ff" d="M27.325,28.096h-6.65c-2.172,0-4.043,1.46-4.607,3.513C18.07,33.695,20.88,35,24,35 s5.93-1.305,7.932-3.391C31.368,29.556,29.497,28.096,27.325,28.096z"/><path fill="#ddbaff" d="M24,29.022L24,29.022c-2.378,0-4.382-1.777-4.665-4.139l-0.231-1.922 c-0.352-2.935,1.94-5.518,4.896-5.518h0c2.956,0,5.248,2.583,4.896,5.518l-0.231,1.922C28.382,27.245,26.378,29.022,24,29.022z"/><path fill="#6c19ff" d="M24,17.443c-1.164,0-2.221,0.404-3.058,1.069c0.442,1.265,1.643,2.173,3.058,2.173 s2.616-0.909,3.058-2.173C26.221,17.848,25.164,17.443,24,17.443z"/><path fill="#00b3d7" d="M22,8.235C22.531,8.711,23.232,9,24,9s1.469-0.289,2-0.765V7h-4V8.235z"/><path fill="#00b3d7" d="M26,39.765C25.469,39.289,24.768,39,24,39s-1.469,0.289-2,0.765V41h4V39.765z"/></svg>