<svg xmlns="http://www.w3.org/2000/svg"  viewBox="0 0 48 48" width="144px" height="144px"><rect width="6" height="5.2" x="12" y="19" fill="#3dd9eb"/><rect width="6" height="5.2" x="12" y="39.8" fill="#3dd9eb"/><rect width="5.2" height="6" x="22.8" y="29" fill="#3dd9eb"/><rect width="5.2" height="6" x="2" y="29" fill="#3dd9eb"/><rect width="5.2" height="6" x="19.754" y="21.645" fill="#3dd9eb" transform="rotate(-45.001 22.353 24.646)"/><rect width="5.2" height="6" x="5.046" y="36.353" fill="#3dd9eb" transform="rotate(-45.001 7.646 39.353)"/><rect width="6" height="5.2" x="19.353" y="36.755" fill="#3dd9eb" transform="rotate(-45.001 22.353 39.355)"/><rect width="6" height="5.2" x="4.646" y="22.046" fill="#3dd9eb" transform="rotate(-45.001 7.645 24.646)"/><circle cx="15" cy="32" r="11" fill="#3dd9eb"/><path fill="#7debf5" d="M24,32c0,1.22-0.25,2.38-0.68,3.44l-2.55-1.8C20.92,33.12,21,32.57,21,32c0-2.61-1.67-4.84-4-5.65 v-3.12C21.01,24.14,24,27.72,24,32z"/><path fill="#7debf5" d="M13,23.23v3.12c-2.33,0.81-4,3.04-4,5.65c0,0.57,0.08,1.12,0.23,1.64l-2.55,1.8 C6.25,34.38,6,33.22,6,32C6,27.72,8.99,24.14,13,23.23z"/><path fill="#7debf5" d="M21,38.7c-1.6,1.43-3.69,2.3-6,2.3s-4.4-0.87-6-2.3l2.54-1.8C12.52,37.6,13.71,38,15,38 s2.48-0.4,3.46-1.1L21,38.7z"/><path fill="#00b3d7" d="M17,30.966v-4.624C16.374,26.121,15.701,26,15,26s-1.374,0.121-2,0.342v4.624L9.227,33.64 c0.379,1.336,1.208,2.481,2.314,3.263L15,34.451l3.46,2.451c1.105-0.782,1.935-1.927,2.314-3.263L17,30.966z"/><g><circle cx="30.517" cy="12.483" r="7.5" fill="#6c19ff"/><rect width="5" height="4" x="28" y="3" fill="#6c19ff"/><rect width="5" height="4" x="21.505" y="6.751" fill="#6c19ff" transform="rotate(-60 24.005 8.751)"/><rect width="4" height="5" x="22.004" y="13.75" fill="#6c19ff" transform="rotate(-30 24.004 16.25)"/><rect width="5" height="4" x="28" y="18" fill="#6c19ff"/><rect width="5" height="4" x="34.495" y="14.251" fill="#6c19ff" transform="rotate(-60 36.995 16.252)"/><rect width="4" height="5" x="34.994" y="6.25" fill="#6c19ff" transform="rotate(-30 36.994 8.751)"/><circle cx="30.517" cy="12.483" r="3.5" fill="#2100c4"/></g><g><circle cx="38" cy="32" r="6" fill="#6c19ff"/><rect width="4" height="3.368" x="36" y="24" fill="#6c19ff"/><rect width="4" height="3.368" x="30.529" y="27.159" fill="#6c19ff" transform="rotate(-60 32.53 28.844)"/><rect width="3.368" height="4" x="30.845" y="33.157" fill="#6c19ff" transform="rotate(-30 32.528 35.159)"/><rect width="4" height="3.368" x="36" y="36.632" fill="#6c19ff"/><rect width="4" height="3.368" x="41.469" y="33.475" fill="#6c19ff" transform="rotate(-60 43.469 35.16)"/><rect width="3.368" height="4" x="41.784" y="26.842" fill="#6c19ff" transform="rotate(-30 43.467 28.844)"/><circle cx="38" cy="32" r="3" fill="#2100c4"/></g></svg>