<svg xmlns="http://www.w3.org/2000/svg"  viewBox="0 0 48 48" width="144px" height="144px"><path fill="#3dd9eb" d="M20,4C11.164,4,4,11.164,4,20c0,8.836,7.164,16,16,16c8.836,0,16-7.164,16-16 C36,11.164,28.836,4,20,4"/><path fill="#6c19ff" d="M33.235,28.993c-1.135,1.667-2.576,3.108-4.243,4.243l11.386,11.386l4.243-4.243L33.235,28.993"/><rect width="8" height="4" x="34" y="16" fill="#6c19ff"/><path fill="#2100c4" d="M27.039,16l-2.808,3.509l-6.009-9.974L10.956,18H4.124C4.042,18.655,4,19.323,4,20 s0.042,1.345,0.124,2h8.67l4.858-5.66l6.116,10.151L28.961,20H36c0-1.381-0.175-2.721-0.504-4H27.039z"/></svg>