<svg xmlns="http://www.w3.org/2000/svg"  viewBox="0 0 64 64" width="128px" height="128px"><linearGradient id="EX1l4_DQUGQqXSXqcbOQJa" x1="53" x2="53" y1="23.979" y2="29.669" gradientUnits="userSpaceOnUse"><stop offset="0" stop-color="#6dc7ff"/><stop offset="1" stop-color="#e6abff"/></linearGradient><circle cx="53" cy="27" r="4" fill="url(#EX1l4_DQUGQqXSXqcbOQJa)"/><linearGradient id="EX1l4_DQUGQqXSXqcbOQJb" x1="11" x2="11" y1="28.192" y2="33.49" gradientUnits="userSpaceOnUse"><stop offset="0" stop-color="#6dc7ff"/><stop offset="1" stop-color="#e6abff"/></linearGradient><circle cx="11" cy="31" r="4" fill="url(#EX1l4_DQUGQqXSXqcbOQJb)"/><linearGradient id="EX1l4_DQUGQqXSXqcbOQJc" x1="26" x2="26" y1="7.83" y2="13.927" gradientUnits="userSpaceOnUse"><stop offset="0" stop-color="#6dc7ff"/><stop offset="1" stop-color="#e6abff"/></linearGradient><circle cx="26" cy="11" r="4" fill="url(#EX1l4_DQUGQqXSXqcbOQJc)"/><linearGradient id="EX1l4_DQUGQqXSXqcbOQJd" x1="22" x2="22" y1="50.66" y2="55.191" gradientUnits="userSpaceOnUse"><stop offset="0" stop-color="#6dc7ff"/><stop offset="1" stop-color="#e6abff"/></linearGradient><circle cx="22" cy="53" r="4" fill="url(#EX1l4_DQUGQqXSXqcbOQJd)"/><linearGradient id="EX1l4_DQUGQqXSXqcbOQJe" x1="32" x2="32" y1="6.745" y2="55.79" gradientUnits="userSpaceOnUse"><stop offset="0" stop-color="#1a6dff"/><stop offset="1" stop-color="#c822ff"/></linearGradient><path fill="url(#EX1l4_DQUGQqXSXqcbOQJe)" d="M53,22c-1.465,0-2.772,0.645-3.688,1.652L30.705,12.626C30.883,12.113,31,11.572,31,11	c0-2.757-2.243-5-5-5s-5,2.243-5,5c0,1.27,0.491,2.418,1.274,3.301l-9.145,12.193C12.481,26.186,11.764,26,11,26	c-2.757,0-5,2.243-5,5s2.243,5,5,5c0.448,0,0.874-0.078,1.287-0.189l6.638,13.276C17.762,50.003,17,51.408,17,53	c0,2.757,2.243,5,5,5s5-2.243,5-5c0-0.86-0.238-1.658-0.623-2.366l23.531-19.735C50.762,31.577,51.827,32,53,32c2.757,0,5-2.243,5-5	S55.757,22,53,22z M48.295,25.374c-0.121,0.349-0.2,0.714-0.241,1.092l-32.296,3.076c-0.213-0.691-0.564-1.315-1.032-1.843	l9.145-12.193C24.519,15.814,25.236,16,26,16c1.465,0,2.772-0.645,3.687-1.652L48.295,25.374z M26,8c1.654,0,3,1.346,3,3	s-1.346,3-3,3s-3-1.346-3-3S24.346,8,26,8z M8,31c0-1.654,1.346-3,3-3s3,1.346,3,3s-1.346,3-3,3S8,32.654,8,31z M14.075,34.913	c1.03-0.811,1.723-2.009,1.871-3.379l32.296-3.076c0.098,0.318,0.224,0.621,0.381,0.908L25.092,49.102	C24.238,48.423,23.173,48,22,48c-0.448,0-0.874,0.078-1.287,0.189L14.075,34.913z M22,56c-1.654,0-3-1.346-3-3s1.346-3,3-3	s3,1.346,3,3S23.654,56,22,56z M53,30c-1.654,0-3-1.346-3-3s1.346-3,3-3s3,1.346,3,3S54.654,30,53,30z"/></svg>